<svg width="34" height="35" viewBox="0 0 34 35" fill="none" xmlns="http://www.w3.org/2000/svg">
<circle cx="16.8639" cy="17.4292" r="15.8966" stroke="#57007B" stroke-width="1.47875"/>
<path d="M21.7161 16.736H13.4951L16.0113 13.7138C16.129 13.5723 16.1856 13.3898 16.1687 13.2065C16.1518 13.0232 16.0628 12.8541 15.9212 12.7365C15.7797 12.6188 15.5972 12.5622 15.4139 12.5791C15.2306 12.596 15.0615 12.685 14.9439 12.8266L11.478 16.9856C11.4547 17.0187 11.4339 17.0534 11.4156 17.0895C11.4156 17.1242 11.4156 17.145 11.3671 17.1797C11.3357 17.2591 11.3193 17.3437 11.3186 17.4292C11.3193 17.5147 11.3357 17.5993 11.3671 17.6787C11.3671 17.7134 11.3671 17.7342 11.4156 17.7688C11.4339 17.805 11.4547 17.8397 11.478 17.8728L14.9439 22.0318C15.009 22.1101 15.0906 22.173 15.1829 22.2161C15.2751 22.2592 15.3758 22.2815 15.4776 22.2814C15.6396 22.2817 15.7965 22.2253 15.9212 22.1219C15.9914 22.0637 16.0494 21.9923 16.092 21.9116C16.1345 21.831 16.1607 21.7427 16.1691 21.6519C16.1774 21.5612 16.1678 21.4696 16.1407 21.3825C16.1137 21.2955 16.0697 21.2146 16.0113 21.1446L13.4951 18.1224H21.7161C21.8999 18.1224 22.0762 18.0493 22.2062 17.9193C22.3362 17.7893 22.4093 17.613 22.4093 17.4292C22.4093 17.2454 22.3362 17.069 22.2062 16.9391C22.0762 16.8091 21.8999 16.736 21.7161 16.736Z" fill="#57007B"/>
</svg>
