<svg width="99" height="99" viewBox="0 0 99 99" fill="none" xmlns="http://www.w3.org/2000/svg">
<g filter="url(#filter0_d_4_444)">
<circle cx="49.3025" cy="39.4292" r="16.636" fill="#FAFAFA"/>
<circle cx="49.3025" cy="39.4292" r="15.8966" stroke="#57007B" stroke-width="1.47875"/>
</g>
<path d="M44.4504 38.736H52.6714L50.1552 35.7138C50.0375 35.5723 49.9809 35.3898 49.9978 35.2065C50.0147 35.0232 50.1037 34.8541 50.2453 34.7365C50.3868 34.6188 50.5693 34.5622 50.7526 34.5791C50.9359 34.596 51.105 34.685 51.2226 34.8266L54.6885 38.9856C54.7118 39.0187 54.7326 39.0534 54.7509 39.0895C54.7509 39.1242 54.7509 39.145 54.7994 39.1797C54.8308 39.2591 54.8472 39.3437 54.8479 39.4292C54.8472 39.5147 54.8308 39.5993 54.7994 39.6787C54.7994 39.7134 54.7994 39.7342 54.7509 39.7688C54.7326 39.805 54.7118 39.8397 54.6885 39.8728L51.2226 44.0318C51.1575 44.1101 51.0759 44.173 50.9836 44.2161C50.8914 44.2592 50.7907 44.2815 50.6889 44.2814C50.5269 44.2817 50.37 44.2253 50.2453 44.1219C50.1751 44.0637 50.1171 43.9923 50.0745 43.9116C50.032 43.831 50.0058 43.7427 49.9974 43.6519C49.9891 43.5612 49.9987 43.4696 50.0258 43.3825C50.0528 43.2955 50.0968 43.2146 50.1552 43.1446L52.6714 40.1224H44.4504C44.2666 40.1224 44.0903 40.0493 43.9603 39.9193C43.8303 39.7893 43.7573 39.613 43.7573 39.4292C43.7573 39.2454 43.8303 39.069 43.9603 38.9391C44.0903 38.8091 44.2666 38.736 44.4504 38.736Z" fill="#57007B"/>
<defs>
<filter id="filter0_d_4_444" x="0.133942" y="0.61192" width="98.3371" height="98.3371" filterUnits="userSpaceOnUse" color-interpolation-filters="sRGB">
<feFlood flood-opacity="0" result="BackgroundImageFix"/>
<feColorMatrix in="SourceAlpha" type="matrix" values="0 0 0 0 0 0 0 0 0 0 0 0 0 0 0 0 0 0 127 0" result="hardAlpha"/>
<feOffset dy="10.3513"/>
<feGaussianBlur stdDeviation="16.2663"/>
<feColorMatrix type="matrix" values="0 0 0 0 0.0561111 0 0 0 0 0.0777333 0 0 0 0 0.133333 0 0 0 0.08 0"/>
<feBlend mode="normal" in2="BackgroundImageFix" result="effect1_dropShadow_4_444"/>
<feBlend mode="normal" in="SourceGraphic" in2="effect1_dropShadow_4_444" result="shape"/>
</filter>
</defs>
</svg>
