<svg width="49" height="49" viewBox="0 0 49 49" fill="none" xmlns="http://www.w3.org/2000/svg">
<path d="M30.1627 24.9445C28.8068 26.1193 27.0966 26.8064 25.3048 26.8963C23.5129 26.9861 21.7426 26.4736 20.2759 25.4403C18.8092 24.407 17.7307 22.9125 17.2122 21.195C16.6937 19.4774 16.7651 17.6357 17.4149 15.9635C18.0648 14.2912 19.2558 12.8847 20.7981 11.968C22.3403 11.0513 24.145 10.6774 25.9246 10.9056C27.7041 11.1339 29.3559 11.9514 30.6169 13.2276C31.8778 14.5039 32.6752 16.1656 32.8819 17.9477C33.5968 21.5826 33.5888 25.9144 31.9501 29.7964C30.219 33.8932 26.7266 37.3474 20.7641 38.9078C20.5721 38.9601 20.3716 38.9737 20.1743 38.948C19.977 38.9223 19.7867 38.8578 19.6145 38.7581C19.4422 38.6585 19.2915 38.5257 19.1709 38.3674C19.0502 38.2091 18.9622 38.0285 18.9118 37.836C18.8614 37.6435 18.8496 37.4429 18.8771 37.2459C18.9047 37.0488 18.971 36.8592 19.0723 36.6879C19.1736 36.5166 19.3078 36.3671 19.4672 36.2479C19.6266 36.1288 19.808 36.0425 20.001 35.9939C25.0839 34.6624 27.8171 31.8368 29.1747 28.6236C29.6643 27.446 29.9965 26.2089 30.1627 24.9445Z" fill="url(#paint0_linear_4_532)"/>
<defs>
<linearGradient id="paint0_linear_4_532" x1="33.3348" y1="10.8403" x2="8.81172" y2="25.1994" gradientUnits="userSpaceOnUse">
<stop stop-color="#F76680"/>
<stop offset="1" stop-color="#57007B"/>
</linearGradient>
</defs>
</svg>
