<svg width="49" height="49" viewBox="0 0 49 49" fill="none" xmlns="http://www.w3.org/2000/svg">
<path d="M18.8373 24.1451C20.1932 25.32 21.9034 26.0071 23.6952 26.097C25.4871 26.1868 27.2574 25.6743 28.7241 24.641C30.1908 23.6077 31.2693 22.1132 31.7878 20.3956C32.3063 18.6781 32.2349 16.8364 31.5851 15.1642C30.9352 13.4919 29.7442 12.0854 28.2019 11.1687C26.6597 10.252 24.855 9.87804 23.0754 10.1063C21.2959 10.3346 19.6441 11.152 18.3831 12.4283C17.1222 13.7046 16.3248 15.3662 16.1181 17.1484C15.4032 20.7833 15.4112 25.1151 17.0499 28.9971C18.781 33.0939 22.2734 36.5481 28.2359 38.1085C28.4279 38.1607 28.6284 38.1744 28.8257 38.1487C29.023 38.123 29.2133 38.0585 29.3855 37.9588C29.5578 37.8591 29.7085 37.7263 29.8291 37.5681C29.9498 37.4098 30.0378 37.2292 30.0882 37.0367C30.1386 36.8442 30.1504 36.6436 30.1229 36.4466C30.0953 36.2495 30.029 36.0598 29.9277 35.8885C29.8264 35.7173 29.6922 35.5677 29.5328 35.4486C29.3734 35.3295 29.192 35.2431 28.999 35.1945C23.9161 33.8631 21.1829 31.0375 19.8253 27.8243C19.3357 26.6466 19.0035 25.4096 18.8373 24.1451Z" fill="url(#paint0_linear_4_535)"/>
<defs>
<linearGradient id="paint0_linear_4_535" x1="15.6652" y1="10.041" x2="40.1883" y2="24.4001" gradientUnits="userSpaceOnUse">
<stop stop-color="#F76680"/>
<stop offset="1" stop-color="#57007B"/>
</linearGradient>
</defs>
</svg>
