<svg width="212" height="61" viewBox="0 0 212 61" fill="none" xmlns="http://www.w3.org/2000/svg">
<g filter="url(#filter0_d_20_691)">
<ellipse cx="31" cy="26.228" rx="17" ry="16.228" fill="#FAFAFA"/>
</g>
<g clip-path="url(#clip0_20_691)">
<path d="M32.9985 22.403H34.094V20.5816C33.905 20.5568 33.255 20.501 32.498 20.501C30.9185 20.501 29.8365 21.4494 29.8365 23.1924V24.7966H28.0935V26.8328H29.8365V31.9561H31.9735V26.8332H33.646L33.9115 24.7971H31.973V23.3943C31.9735 22.8058 32.1395 22.403 32.9985 22.403Z" fill="#1A202C"/>
</g>
<g filter="url(#filter1_d_20_691)">
<ellipse cx="81" cy="26.228" rx="17" ry="16.228" fill="#FAFAFA"/>
</g>
<g clip-path="url(#clip1_20_691)">
<path d="M84.481 19.5459H78.519C76.5786 19.5459 75 21.0528 75 22.9051V28.5965C75 30.4486 76.5786 31.9555 78.519 31.9555H84.4811C86.4214 31.9555 88 30.4486 88 28.5965V22.9051C88 21.0528 86.4214 19.5459 84.481 19.5459V19.5459ZM87.2379 28.5965C87.2379 30.0475 86.0012 31.228 84.481 31.228H78.519C76.9988 31.228 75.7621 30.0475 75.7621 28.5965V22.9051C75.7621 21.4539 76.9988 20.2734 78.519 20.2734H84.4811C86.0012 20.2734 87.2379 21.4539 87.2379 22.9051V28.5965Z" fill="#1A202C"/>
<path d="M81.4999 22.3574C79.5399 22.3574 77.9453 23.8796 77.9453 25.7506C77.9453 27.6216 79.5399 29.1438 81.4999 29.1438C83.4599 29.1438 85.0545 27.6216 85.0545 25.7506C85.0545 23.8796 83.4599 22.3574 81.4999 22.3574ZM81.4999 28.4162C79.9602 28.4162 78.7074 27.2205 78.7074 25.7506C78.7074 24.2808 79.9602 23.0849 81.4999 23.0849C83.0397 23.0849 84.2924 24.2808 84.2924 25.7506C84.2924 27.2205 83.0397 28.4162 81.4999 28.4162Z" fill="#1A202C"/>
<path d="M85.1394 21.1523C84.5602 21.1523 84.0891 21.6022 84.0891 22.155C84.0891 22.7079 84.5602 23.1577 85.1394 23.1577C85.7187 23.1577 86.1899 22.7079 86.1899 22.155C86.1899 21.6021 85.7187 21.1523 85.1394 21.1523ZM85.1394 22.4301C84.9806 22.4301 84.8512 22.3067 84.8512 22.155C84.8512 22.0032 84.9806 21.8798 85.1394 21.8798C85.2984 21.8798 85.4278 22.0032 85.4278 22.155C85.4278 22.3067 85.2984 22.4301 85.1394 22.4301Z" fill="#1A202C"/>
</g>
<g filter="url(#filter2_d_20_691)">
<ellipse cx="131" cy="26.228" rx="17" ry="16.228" fill="#FAFAFA"/>
</g>
<g clip-path="url(#clip2_20_691)">
<path d="M137 22.8577C136.517 23.0601 136.001 23.1943 135.464 23.2595C136.017 22.9446 136.439 22.4497 136.637 21.8533C136.122 22.1465 135.553 22.3536 134.947 22.4691C134.458 21.972 133.761 21.6641 133 21.6641C131.525 21.6641 130.337 22.8073 130.337 24.2088C130.337 24.4105 130.355 24.6044 130.398 24.789C128.183 24.6858 126.222 23.6721 124.905 22.1279C124.675 22.5087 124.54 22.9446 124.54 23.4138C124.54 24.2949 125.016 25.0759 125.724 25.5281C125.296 25.5204 124.876 25.4017 124.52 25.2148C124.52 25.2225 124.52 25.2326 124.52 25.2427C124.52 26.479 125.444 27.5059 126.655 27.7425C126.438 27.7991 126.202 27.8262 125.957 27.8262C125.786 27.8262 125.614 27.8169 125.452 27.7828C125.797 28.7903 126.777 29.531 127.942 29.5551C127.036 30.2322 125.884 30.6401 124.638 30.6401C124.419 30.6401 124.21 30.6308 124 30.6052C125.181 31.332 126.58 31.7469 128.089 31.7469C132.993 31.7469 135.674 27.8689 135.674 24.5074C135.674 24.395 135.67 24.2864 135.664 24.1786C136.193 23.8202 136.638 23.3727 137 22.8577Z" fill="#1A202C"/>
</g>
<g filter="url(#filter3_d_20_691)">
<ellipse cx="181" cy="26.228" rx="17" ry="16.228" fill="#FAFAFA"/>
</g>
<g clip-path="url(#clip3_20_691)">
<path d="M185.997 31.0012V31.0007H186V27.1497C186 25.2657 185.575 23.8145 183.268 23.8145C182.159 23.8145 181.414 24.3955 181.111 24.9463H181.078V23.9903H178.891V31.0007H181.169V27.5294C181.169 26.6155 181.35 25.7317 182.536 25.7317C183.704 25.7317 183.722 26.7747 183.722 27.5881V31.0012H185.997Z" fill="#1A202C"/>
<path d="M175.181 23.9912H177.462V31.0016H175.181V23.9912Z" fill="#1A202C"/>
<path d="M176.321 20.501C175.592 20.501 175 21.0658 175 21.7619C175 22.458 175.592 23.0347 176.321 23.0347C177.05 23.0347 177.642 22.458 177.642 21.7619C177.641 21.0658 177.05 20.501 176.321 20.501V20.501Z" fill="#1A202C"/>
</g>
<defs>
<filter id="filter0_d_20_691" x="0" y="0" width="62" height="60.4561" filterUnits="userSpaceOnUse" color-interpolation-filters="sRGB">
<feFlood flood-opacity="0" result="BackgroundImageFix"/>
<feColorMatrix in="SourceAlpha" type="matrix" values="0 0 0 0 0 0 0 0 0 0 0 0 0 0 0 0 0 0 127 0" result="hardAlpha"/>
<feOffset dy="4"/>
<feGaussianBlur stdDeviation="7"/>
<feColorMatrix type="matrix" values="0 0 0 0 0 0 0 0 0 0 0 0 0 0 0 0 0 0 0.15 0"/>
<feBlend mode="normal" in2="BackgroundImageFix" result="effect1_dropShadow_20_691"/>
<feBlend mode="normal" in="SourceGraphic" in2="effect1_dropShadow_20_691" result="shape"/>
</filter>
<filter id="filter1_d_20_691" x="50" y="0" width="62" height="60.4561" filterUnits="userSpaceOnUse" color-interpolation-filters="sRGB">
<feFlood flood-opacity="0" result="BackgroundImageFix"/>
<feColorMatrix in="SourceAlpha" type="matrix" values="0 0 0 0 0 0 0 0 0 0 0 0 0 0 0 0 0 0 127 0" result="hardAlpha"/>
<feOffset dy="4"/>
<feGaussianBlur stdDeviation="7"/>
<feColorMatrix type="matrix" values="0 0 0 0 0 0 0 0 0 0 0 0 0 0 0 0 0 0 0.15 0"/>
<feBlend mode="normal" in2="BackgroundImageFix" result="effect1_dropShadow_20_691"/>
<feBlend mode="normal" in="SourceGraphic" in2="effect1_dropShadow_20_691" result="shape"/>
</filter>
<filter id="filter2_d_20_691" x="100" y="0" width="62" height="60.4561" filterUnits="userSpaceOnUse" color-interpolation-filters="sRGB">
<feFlood flood-opacity="0" result="BackgroundImageFix"/>
<feColorMatrix in="SourceAlpha" type="matrix" values="0 0 0 0 0 0 0 0 0 0 0 0 0 0 0 0 0 0 127 0" result="hardAlpha"/>
<feOffset dy="4"/>
<feGaussianBlur stdDeviation="7"/>
<feColorMatrix type="matrix" values="0 0 0 0 0 0 0 0 0 0 0 0 0 0 0 0 0 0 0.15 0"/>
<feBlend mode="normal" in2="BackgroundImageFix" result="effect1_dropShadow_20_691"/>
<feBlend mode="normal" in="SourceGraphic" in2="effect1_dropShadow_20_691" result="shape"/>
</filter>
<filter id="filter3_d_20_691" x="150" y="0" width="62" height="60.4561" filterUnits="userSpaceOnUse" color-interpolation-filters="sRGB">
<feFlood flood-opacity="0" result="BackgroundImageFix"/>
<feColorMatrix in="SourceAlpha" type="matrix" values="0 0 0 0 0 0 0 0 0 0 0 0 0 0 0 0 0 0 127 0" result="hardAlpha"/>
<feOffset dy="4"/>
<feGaussianBlur stdDeviation="7"/>
<feColorMatrix type="matrix" values="0 0 0 0 0 0 0 0 0 0 0 0 0 0 0 0 0 0 0.15 0"/>
<feBlend mode="normal" in2="BackgroundImageFix" result="effect1_dropShadow_20_691"/>
<feBlend mode="normal" in="SourceGraphic" in2="effect1_dropShadow_20_691" result="shape"/>
</filter>
<clipPath id="clip0_20_691">
<rect width="12" height="11.4551" fill="white" transform="translate(25 20.501)"/>
</clipPath>
<clipPath id="clip1_20_691">
<rect width="13" height="12.4097" fill="white" transform="translate(75 19.5459)"/>
</clipPath>
<clipPath id="clip2_20_691">
<rect width="13" height="12.4097" fill="white" transform="translate(124 20.501)"/>
</clipPath>
<clipPath id="clip3_20_691">
<rect width="11" height="10.5005" fill="white" transform="translate(175 20.501)"/>
</clipPath>
</defs>
</svg>
