<svg width="1354" height="137" viewBox="0 0 1354 137" fill="none" xmlns="http://www.w3.org/2000/svg">
<g filter="url(#filter0_d_4_524)">
<circle cx="1285.44" cy="54" r="23" fill="#FAFAFA"/>
<circle cx="1285.44" cy="54" r="21.9778" stroke="#57007B" stroke-width="2.04444"/>
</g>
<path d="M1278.74 53.0417H1290.1L1286.62 48.8634C1286.46 48.6677 1286.38 48.4154 1286.41 48.162C1286.43 47.9086 1286.55 47.6748 1286.75 47.5121C1286.94 47.3495 1287.2 47.2712 1287.45 47.2946C1287.7 47.3179 1287.94 47.441 1288.1 47.6367L1292.89 53.3867C1292.92 53.4325 1292.95 53.4805 1292.98 53.5305C1292.98 53.5784 1292.98 53.6071 1293.04 53.6551C1293.09 53.7649 1293.11 53.8819 1293.11 54.0001C1293.11 54.1182 1293.09 54.2352 1293.04 54.3451C1293.04 54.393 1293.04 54.4217 1292.98 54.4696C1292.95 54.5196 1292.92 54.5677 1292.89 54.6134L1288.1 60.3634C1288.01 60.4716 1287.9 60.5586 1287.77 60.6182C1287.64 60.6778 1287.5 60.7086 1287.36 60.7084C1287.14 60.7088 1286.92 60.6308 1286.75 60.488C1286.65 60.4075 1286.57 60.3087 1286.51 60.1972C1286.45 60.0857 1286.42 59.9637 1286.41 59.8382C1286.39 59.7127 1286.41 59.5861 1286.44 59.4657C1286.48 59.3454 1286.54 59.2336 1286.62 59.1367L1290.1 54.9584H1278.74C1278.48 54.9584 1278.24 54.8574 1278.06 54.6777C1277.88 54.498 1277.78 54.2542 1277.78 54.0001C1277.78 53.7459 1277.88 53.5021 1278.06 53.3224C1278.24 53.1427 1278.48 53.0417 1278.74 53.0417Z" fill="#57007B"/>
<circle cx="23" cy="54" r="21.9778" stroke="#57007B" stroke-width="2.04444"/>
<path d="M29.7084 53.0417H18.3425L21.8213 48.8634C21.984 48.6677 22.0622 48.4154 22.0389 48.162C22.0155 47.9086 21.8924 47.6748 21.6967 47.5121C21.501 47.3495 21.2487 47.2712 20.9953 47.2946C20.7419 47.3179 20.5081 47.441 20.3455 47.6367L15.5538 53.3867C15.5216 53.4325 15.4927 53.4805 15.4675 53.5305C15.4675 53.5784 15.4675 53.6071 15.4005 53.6551C15.357 53.7649 15.3343 53.8819 15.3334 54.0001C15.3343 54.1182 15.357 54.2352 15.4005 54.3451C15.4005 54.393 15.4005 54.4217 15.4675 54.4696C15.4927 54.5196 15.5216 54.5677 15.5538 54.6134L20.3455 60.3634C20.4356 60.4716 20.5484 60.5586 20.6759 60.6182C20.8035 60.6778 20.9426 60.7086 21.0834 60.7084C21.3073 60.7088 21.5243 60.6308 21.6967 60.488C21.7937 60.4075 21.874 60.3087 21.9328 60.1972C21.9916 60.0857 22.0278 59.9637 22.0393 59.8382C22.0509 59.7127 22.0376 59.5861 22.0002 59.4657C21.9628 59.3454 21.902 59.2336 21.8213 59.1367L18.3425 54.9584H29.7084C29.9625 54.9584 30.2063 54.8574 30.386 54.6777C30.5657 54.498 30.6667 54.2542 30.6667 54.0001C30.6667 53.7459 30.5657 53.5021 30.386 53.3224C30.2063 53.1427 29.9625 53.0417 29.7084 53.0417Z" fill="#57007B"/>
<defs>
<filter id="filter0_d_4_524" x="1217.47" y="0.333332" width="135.956" height="135.956" filterUnits="userSpaceOnUse" color-interpolation-filters="sRGB">
<feFlood flood-opacity="0" result="BackgroundImageFix"/>
<feColorMatrix in="SourceAlpha" type="matrix" values="0 0 0 0 0 0 0 0 0 0 0 0 0 0 0 0 0 0 127 0" result="hardAlpha"/>
<feOffset dy="14.3111"/>
<feGaussianBlur stdDeviation="22.4889"/>
<feColorMatrix type="matrix" values="0 0 0 0 0.0561111 0 0 0 0 0.0777333 0 0 0 0 0.133333 0 0 0 0.08 0"/>
<feBlend mode="normal" in2="BackgroundImageFix" result="effect1_dropShadow_4_524"/>
<feBlend mode="normal" in="SourceGraphic" in2="effect1_dropShadow_4_524" result="shape"/>
</filter>
</defs>
</svg>
