<svg width="145" height="124" viewBox="0 0 145 124" fill="none" xmlns="http://www.w3.org/2000/svg">
<g filter="url(#filter0_d_20_645)">
<circle cx="82.7773" cy="48.7773" r="20.7773" fill="#FAFAFA"/>
<circle cx="82.7773" cy="48.7773" r="19.8539" stroke="#57007B" stroke-width="1.84688"/>
</g>
<path d="M76.7173 47.9122H86.9848L83.8422 44.1377C83.6952 43.9609 83.6245 43.7329 83.6456 43.504C83.6668 43.2751 83.7779 43.0639 83.9547 42.917C84.1315 42.7701 84.3594 42.6994 84.5884 42.7205C84.8173 42.7416 85.0284 42.8527 85.1754 43.0295L89.504 48.2239C89.5331 48.2652 89.5592 48.3086 89.5819 48.3537C89.5819 48.397 89.5819 48.423 89.6425 48.4663C89.6818 48.5655 89.7023 48.6712 89.7031 48.7779C89.7023 48.8847 89.6818 48.9903 89.6425 49.0896C89.6425 49.1329 89.6425 49.1589 89.5819 49.2021C89.5592 49.2473 89.5331 49.2907 89.504 49.332L85.1754 54.5263C85.094 54.6241 84.9921 54.7027 84.8769 54.7565C84.7616 54.8104 84.636 54.8382 84.5088 54.838C84.3065 54.8384 84.1105 54.7679 83.9547 54.6389C83.8671 54.5662 83.7946 54.4769 83.7415 54.3762C83.6884 54.2755 83.6557 54.1653 83.6452 54.0519C83.6347 53.9385 83.6468 53.8242 83.6806 53.7154C83.7144 53.6067 83.7693 53.5057 83.8422 53.4182L86.9848 49.6437H76.7173C76.4877 49.6437 76.2675 49.5525 76.1051 49.3901C75.9428 49.2277 75.8516 49.0075 75.8516 48.7779C75.8516 48.5483 75.9428 48.3281 76.1051 48.1658C76.2675 48.0034 76.4877 47.9122 76.7173 47.9122Z" fill="#57007B"/>
<circle cx="20.7773" cy="48.7773" r="19.8539" stroke="#57007B" stroke-width="1.84688"/>
<path d="M26.8374 47.9122H16.5699L19.7125 44.1377C19.8595 43.9609 19.9301 43.7329 19.909 43.504C19.8879 43.2751 19.7768 43.0639 19.6 42.917C19.4232 42.7701 19.1952 42.6994 18.9663 42.7205C18.7374 42.7416 18.5262 42.8527 18.3793 43.0295L14.0507 48.2239C14.0216 48.2652 13.9955 48.3086 13.9728 48.3537C13.9728 48.397 13.9728 48.423 13.9122 48.4663C13.8729 48.5655 13.8524 48.6712 13.8516 48.7779C13.8524 48.8847 13.8729 48.9903 13.9122 49.0896C13.9122 49.1329 13.9122 49.1589 13.9728 49.2021C13.9955 49.2473 14.0216 49.2907 14.0507 49.332L18.3793 54.5263C18.4607 54.6241 18.5626 54.7027 18.6778 54.7565C18.793 54.8104 18.9187 54.8382 19.0459 54.838C19.2482 54.8384 19.4442 54.7679 19.6 54.6389C19.6876 54.5662 19.7601 54.4769 19.8132 54.3762C19.8663 54.2755 19.899 54.1653 19.9095 54.0519C19.9199 53.9385 19.9079 53.8242 19.8741 53.7154C19.8403 53.6067 19.7854 53.5057 19.7125 53.4182L16.5699 49.6437H26.8374C27.067 49.6437 27.2872 49.5525 27.4496 49.3901C27.6119 49.2277 27.7031 49.0075 27.7031 48.7779C27.7031 48.5483 27.6119 48.3281 27.4496 48.1658C27.2872 48.0034 27.067 47.9122 26.8374 47.9122Z" fill="#57007B"/>
<defs>
<filter id="filter0_d_20_645" x="21.3687" y="0.296873" width="122.817" height="122.817" filterUnits="userSpaceOnUse" color-interpolation-filters="sRGB">
<feFlood flood-opacity="0" result="BackgroundImageFix"/>
<feColorMatrix in="SourceAlpha" type="matrix" values="0 0 0 0 0 0 0 0 0 0 0 0 0 0 0 0 0 0 127 0" result="hardAlpha"/>
<feOffset dy="12.9281"/>
<feGaussianBlur stdDeviation="20.3156"/>
<feColorMatrix type="matrix" values="0 0 0 0 0.0561111 0 0 0 0 0.0777333 0 0 0 0 0.133333 0 0 0 0.08 0"/>
<feBlend mode="normal" in2="BackgroundImageFix" result="effect1_dropShadow_20_645"/>
<feBlend mode="normal" in="SourceGraphic" in2="effect1_dropShadow_20_645" result="shape"/>
</filter>
</defs>
</svg>
